<svg width="20" height="14" viewBox="0 0 20 14" fill="none" xmlns="http://www.w3.org/2000/svg">
<path d="M19.9358 4.87131C19.9358 4.87131 18.0624 2.36878 18.0613 2.36736C18.0608 2.36669 18.02 2.29416 17.8941 2.25411L10.0877 0.049853C10.0304 0.0336753 9.96973 0.0336753 9.91235 0.049853L2.10597 2.25411C2.10597 2.25411 1.99939 2.28487 1.93535 2.37131C1.9097 2.40594 0.0643751 4.87131 0.0643751 4.87131C0.0025086 4.95406 -0.0160691 5.06144 0.0145086 5.16015C0.0451307 5.25886 0.121175 5.33695 0.218997 5.37015L1.87104 5.93082V10.4141C1.87104 10.5447 1.94975 10.6623 2.07046 10.7122L9.87689 13.938C9.90009 13.9476 9.92951 13.9625 10 13.9625C10.0706 13.9625 10.1232 13.938 10.1232 13.938L17.9297 10.7122C18.0504 10.6623 18.129 10.5446 18.129 10.4141V5.93073L19.7811 5.37006C19.8789 5.33686 19.955 5.25873 19.9856 5.16006C20.0162 5.06144 19.9976 4.95406 19.9358 4.87131ZM0.847262 4.90202L2.32006 2.93402L2.91575 3.09811L6.26823 4.02158L9.43867 4.895L7.57925 7.18677L0.847262 4.90202ZM9.67751 13.1575L2.51619 10.1983V6.14971L7.58463 7.87006C7.61858 7.88166 7.65356 7.88712 7.68827 7.88712C7.7836 7.88712 7.87631 7.84477 7.93871 7.76775L9.67755 5.62468L9.67751 13.1575ZM10 4.3806L3.39428 2.56078L10 0.695452L16.6058 2.56078L10 4.3806ZM17.4839 10.1983L10.3226 13.1575V5.62477L12.0614 7.76784C12.1238 7.84477 12.2165 7.88721 12.3119 7.88721C12.3466 7.88721 12.3815 7.88175 12.4155 7.87015L17.4839 6.1498V10.1983ZM12.4209 7.18686L10.5615 4.89509L17.6801 2.93402L19.1529 4.90202L12.4209 7.18686Z" fill="#821BF0"/>
</svg>
