<svg width="18" height="18" viewBox="0 0 18 18" fill="none" xmlns="http://www.w3.org/2000/svg">
<g clip-path="url(#clip0_593_468)">
<path d="M13.9862 0.0278781C13.8691 -0.024152 13.7304 -0.00247331 13.635 0.0842436C11.7619 1.77956 10.5522 4.12959 10.5522 6.07204V11.1667C10.5522 11.3444 10.6996 11.4918 10.8774 11.4918H11.6752V17.6704C11.6752 17.8482 11.8226 17.9956 12.0004 17.9956H13.8518C14.0295 17.9956 14.177 17.8482 14.1813 17.6704V0.32705C14.1813 0.196974 14.1032 0.0799083 13.9862 0.0278781ZM13.5266 17.3452H12.3255V11.4918H13.5266V17.3452ZM13.5266 10.8415H11.2026V6.07204C11.2026 4.52415 12.1174 2.60337 13.5266 1.10317V10.8415Z" fill="#821BF0"/>
<path d="M7.84666 0.00292969C7.66889 0.00292969 7.52147 0.150348 7.52147 0.328118V4.66396H6.32045V0.328118C6.32045 0.150348 6.17303 0.00292969 5.99526 0.00292969C5.81749 0.00292969 5.67007 0.150348 5.67007 0.328118V4.66396H4.46904V0.328118C4.46904 0.150348 4.32162 0.00292969 4.14385 0.00292969C3.96608 0.00292969 3.81866 0.150348 3.81866 0.328118V4.66396V4.98915V6.07311C3.81866 6.97063 4.62513 7.71206 5.67007 7.84214V10.8425H4.94165V16.9691C4.94165 17.5458 5.37957 18.001 5.93889 18.001H6.05162C6.61095 18.001 7.04887 17.5501 7.04887 16.9691V10.8425H6.32045V7.84214C7.36972 7.71206 8.17185 6.97063 8.17185 6.07311V4.98915V4.66396V0.328118C8.17185 0.150348 8.02443 0.00292969 7.84666 0.00292969ZM6.40283 11.4929V16.9691H6.39849C6.39849 17.1512 6.27709 17.3506 6.05162 17.3506H5.93889C5.71343 17.3506 5.59202 17.1555 5.59202 16.9691V11.4929H6.40283ZM7.52581 6.07311H7.52147C7.52147 6.6888 6.8234 7.2091 5.99526 7.2091C5.16711 7.2091 4.46904 6.6888 4.46904 6.07311V5.31434H7.52581V6.07311Z" fill="#821BF0"/>
</g>
<defs>
<clipPath id="clip0_593_468">
<rect width="18" height="18" fill="white"/>
</clipPath>
</defs>
</svg>
