<svg width="25" height="25" viewBox="0 0 25 25" fill="none" xmlns="http://www.w3.org/2000/svg">
<path d="M24.5833 11.6667H23.675C23.2787 9.30583 21.2375 7.5 18.78 7.5C16.3542 7.5 14.3233 9.21625 13.8529 11.4913C13.4483 11.1521 12.9867 10.9721 12.5 10.9721C12.0138 10.9721 11.5525 11.1521 11.1479 11.4908C10.6829 9.21583 8.67708 7.5 6.28 7.5C3.64833 7.5 1.48542 9.52125 1.27125 12.0833H0.416667C0.18625 12.0833 0 12.27 0 12.5C0 12.73 0.18625 12.9167 0.416667 12.9167H1.27125C1.48542 15.4787 3.64833 17.5 6.28 17.5C8.97458 17.5 11.17 15.3304 11.2429 12.6371C11.5983 12.1017 12.0408 11.8054 12.5 11.8054C12.9592 11.8054 13.4017 12.1021 13.7571 12.6371C13.8312 15.3304 16.0533 17.5 18.78 17.5C21.5204 17.5 23.75 15.2571 23.75 12.5H24.5833C24.8137 12.5 25 12.3133 25 12.0833C25 11.8533 24.8137 11.6667 24.5833 11.6667ZM6.28 16.6667C3.96625 16.6667 2.08333 14.7975 2.08333 12.5C2.08333 10.2025 3.96625 8.33333 6.28 8.33333C8.6 8.33333 10.4167 10.1637 10.4167 12.5C10.4167 14.8362 8.6 16.6667 6.28 16.6667ZM18.78 16.6667C16.4662 16.6667 14.5833 14.7975 14.5833 12.5C14.5833 10.2025 16.4662 8.33333 18.78 8.33333C21.1 8.33333 22.9167 10.1637 22.9167 12.5C22.9167 14.8362 21.1 16.6667 18.78 16.6667Z" fill="#821BF0"/>
</svg>
