<svg width="18" height="18" viewBox="0 0 18 18" fill="none" xmlns="http://www.w3.org/2000/svg">
<g clip-path="url(#clip0_593_514)">
<path d="M17.3056 10.0344C17.3967 9.86295 17.3315 9.65012 17.1601 9.55899C15.1902 8.51218 12.7872 8.76323 11.0801 10.166L10.5121 9.59798L11.4398 8.67032C11.577 8.53303 11.577 8.31042 11.4398 8.1731C11.3024 8.03582 11.0799 8.03582 10.9426 8.1731L10.0149 9.10077L7.7515 6.83738C8.26633 6.14695 8.59022 5.33597 8.69235 4.47243C8.81002 3.47695 8.62274 2.48119 8.15066 1.5929C8.05957 1.42144 7.84667 1.35633 7.67525 1.44742C7.50379 1.53855 7.43868 1.75138 7.52977 1.92284C8.28696 3.34771 8.16845 5.03964 7.24828 6.33416L5.75671 4.84259C5.54742 4.6333 5.24993 4.54647 4.96088 4.61014C4.67183 4.67387 4.43846 4.87781 4.33658 5.15572L0.0538591 16.8392C-0.0631053 17.1583 0.0134998 17.5059 0.253862 17.7462C0.419834 17.9122 0.636853 18.0001 0.860411 18.0001C0.960606 18.0001 1.0621 17.9824 1.16085 17.9462L12.8443 13.6635C13.1222 13.5616 13.3261 13.3282 13.3899 13.0392C13.4536 12.7501 13.3667 12.4527 13.1575 12.2434L11.5804 10.6662C13.0658 9.48098 15.1323 9.27767 16.8302 10.1799C17.0016 10.271 17.2144 10.2059 17.3056 10.0344ZM5.59952 15.5703L2.42981 12.4006L3.30808 10.0046L7.99545 14.692L5.59952 15.5703ZM3.88155 16.2L1.80006 14.1185L2.16309 13.1282L4.87186 15.837L3.88155 16.2ZM0.91884 17.286C0.83552 17.3166 0.777969 17.2759 0.751005 17.249C0.724075 17.2221 0.68347 17.1645 0.71402 17.0812L1.5333 14.8462L3.15385 16.4667L0.91884 17.286ZM12.7033 12.8878C12.6962 12.9197 12.6738 12.9771 12.6023 13.0033L10.441 13.7955L6.23815 9.59798C6.10086 9.46066 5.87825 9.46069 5.74097 9.59794C5.60368 9.73523 5.60365 9.95784 5.74093 10.0951L9.71339 14.0622L8.72307 14.4252L3.57481 9.27697L3.93784 8.28666L5.707 10.0558C5.77562 10.1244 5.86562 10.1588 5.95559 10.1588C6.04555 10.1588 6.13555 10.1244 6.20418 10.0558C6.34146 9.9185 6.34146 9.69589 6.20414 9.5586L4.20457 7.55903L4.99681 5.39774C5.023 5.3263 5.08041 5.30384 5.11233 5.29677C5.12203 5.29463 5.13451 5.2928 5.14868 5.2928C5.18099 5.2928 5.22216 5.30236 5.25957 5.3398L12.6603 12.7405C12.7141 12.7943 12.7103 12.8559 12.7033 12.8878Z" fill="#821BF0"/>
<path d="M10.603 2.80558C10.7971 2.80558 10.9545 2.64818 10.9545 2.45401C10.9545 2.15958 11.1941 1.92006 11.4885 1.92006C12.1706 1.92006 12.7256 1.36512 12.7256 0.682983C12.7256 0.488815 12.5682 0.331421 12.374 0.331421C12.1799 0.331421 12.0225 0.488815 12.0225 0.682983C12.0225 0.977417 11.7829 1.21694 11.4885 1.21694C10.8064 1.21694 10.2514 1.77188 10.2514 2.45401C10.2514 2.64818 10.4088 2.80558 10.603 2.80558Z" fill="#821BF0"/>
<path d="M13.7221 6.12395C14.4266 6.12395 14.9998 5.5508 14.9998 4.84634C14.9998 4.52958 15.2575 4.27185 15.5742 4.27185C15.7684 4.27185 15.9258 4.11446 15.9258 3.92029C15.9258 3.72612 15.7684 3.56873 15.5742 3.56873C14.8698 3.56873 14.2966 4.14188 14.2966 4.84634C14.2966 5.1631 14.0389 5.42083 13.7221 5.42083C13.528 5.42083 13.3705 5.57822 13.3705 5.77239C13.3705 5.96656 13.528 6.12395 13.7221 6.12395Z" fill="#821BF0"/>
<path d="M15.75 6.80212C15.75 7.42246 16.2547 7.92712 16.875 7.92712C17.4953 7.92712 18 7.42246 18 6.80212C18 6.18179 17.4953 5.67712 16.875 5.67712C16.2547 5.67712 15.75 6.18179 15.75 6.80212ZM16.875 6.38025C17.1076 6.38025 17.2969 6.5695 17.2969 6.80212C17.2969 7.03475 17.1076 7.224 16.875 7.224C16.6424 7.224 16.4531 7.03475 16.4531 6.80212C16.4531 6.5695 16.6424 6.38025 16.875 6.38025Z" fill="#821BF0"/>
<path d="M11.078 5.97144C11.6983 5.97144 12.203 5.46677 12.203 4.84644C12.203 4.22611 11.6983 3.72144 11.078 3.72144C10.4577 3.72144 9.953 4.22611 9.953 4.84644C9.953 5.46677 10.4577 5.97144 11.078 5.97144ZM11.078 4.42456C11.3106 4.42456 11.4999 4.61381 11.4999 4.84644C11.4999 5.07907 11.3106 5.26831 11.078 5.26831C10.8454 5.26831 10.6561 5.07907 10.6561 4.84644C10.6561 4.61381 10.8454 4.42456 11.078 4.42456Z" fill="#821BF0"/>
<path d="M4.50012 2.25C5.12045 2.25 5.62512 1.74533 5.62512 1.125C5.62512 0.504668 5.12045 0 4.50012 0C3.87979 0 3.37512 0.504668 3.37512 1.125C3.37512 1.74533 3.87979 2.25 4.50012 2.25ZM4.50012 0.703125C4.73275 0.703125 4.922 0.892371 4.922 1.125C4.922 1.35763 4.73275 1.54688 4.50012 1.54688C4.26749 1.54688 4.07825 1.35763 4.07825 1.125C4.07825 0.892371 4.26749 0.703125 4.50012 0.703125Z" fill="#821BF0"/>
<path d="M15.9083 12.3419C15.7711 12.2046 15.5486 12.2046 15.4111 12.3418C15.2738 12.4791 15.2738 12.7017 15.4111 12.839L15.7426 13.1704C15.8112 13.2391 15.9012 13.2734 15.9912 13.2734C16.0811 13.2734 16.1711 13.2391 16.2398 13.1704C16.377 13.0332 16.377 12.8106 16.2398 12.6733L15.9083 12.3419Z" fill="#821BF0"/>
<path d="M17.5656 13.9992C17.4282 13.8619 17.2057 13.8619 17.0684 13.9992C16.9311 14.1365 16.9311 14.3591 17.0684 14.4964L17.3998 14.8279C17.4685 14.8965 17.5584 14.9309 17.6484 14.9309C17.7384 14.9309 17.8283 14.8965 17.897 14.8279C18.0343 14.6906 18.0343 14.468 17.897 14.3307L17.5656 13.9992Z" fill="#821BF0"/>
<path d="M17.3998 12.3419L17.0684 12.6733C16.9311 12.8106 16.9311 13.0332 17.0684 13.1705C17.137 13.2392 17.227 13.2735 17.3169 13.2735C17.4069 13.2735 17.4969 13.2391 17.5655 13.1705L17.897 12.839C18.0343 12.7018 18.0343 12.4792 17.897 12.3419C17.7597 12.2045 17.5371 12.2046 17.3998 12.3419Z" fill="#821BF0"/>
<path d="M15.7426 13.9992L15.4111 14.3307C15.2738 14.4679 15.2738 14.6906 15.4111 14.8279C15.4798 14.8965 15.5698 14.9309 15.6597 14.9309C15.7497 14.9309 15.8396 14.8965 15.9083 14.8279L16.2398 14.4964C16.377 14.3591 16.377 14.1365 16.2398 13.9992C16.1024 13.8619 15.8799 13.8619 15.7426 13.9992Z" fill="#821BF0"/>
<path d="M17.317 1.03457C17.4069 1.03457 17.4969 1.00026 17.5656 0.931597L17.897 0.600143C18.0343 0.462858 18.0343 0.240249 17.897 0.102964C17.7597 -0.0343213 17.5371 -0.0343213 17.3998 0.102964L17.0684 0.434417C16.9311 0.571702 16.9311 0.794311 17.0684 0.931597C17.1371 1.00026 17.227 1.03457 17.317 1.03457Z" fill="#821BF0"/>
<path d="M15.6597 2.69183C15.7497 2.69183 15.8396 2.65752 15.9083 2.58886L16.2397 2.25741C16.377 2.12012 16.377 1.89751 16.2397 1.76019C16.1024 1.62291 15.8799 1.62291 15.7425 1.76019L15.4111 2.09164C15.2738 2.22893 15.2738 2.45154 15.4111 2.58886C15.4798 2.65752 15.5697 2.69183 15.6597 2.69183Z" fill="#821BF0"/>
<path d="M17.5656 1.76019C17.4282 1.62291 17.2057 1.62291 17.0684 1.76019C16.9311 1.89748 16.9311 2.12008 17.0684 2.25741L17.3998 2.58886C17.4685 2.65752 17.5584 2.69183 17.6484 2.69183C17.7384 2.69183 17.8283 2.65752 17.897 2.58886C18.0343 2.45157 18.0343 2.22896 17.897 2.09164L17.5656 1.76019Z" fill="#821BF0"/>
<path d="M15.7426 0.931597C15.8112 1.00026 15.9012 1.03457 15.9911 1.03457C16.0811 1.03457 16.1711 1.00026 16.2397 0.931597C16.377 0.794311 16.377 0.571702 16.2397 0.434417L15.9083 0.102964C15.771 -0.0343213 15.5485 -0.0343213 15.4111 0.102964C15.2738 0.240249 15.2738 0.462858 15.4111 0.600143L15.7426 0.931597Z" fill="#821BF0"/>
<path d="M12.2033 6.91229L11.9484 7.16717C11.8111 7.30446 11.8111 7.52706 11.9484 7.66438C12.0171 7.73304 12.107 7.76735 12.197 7.76735C12.287 7.76735 12.3769 7.73304 12.4456 7.66438L12.7005 7.4095C12.8378 7.27222 12.8378 7.04961 12.7005 6.91229C12.5632 6.77501 12.3406 6.77501 12.2033 6.91229Z" fill="#821BF0"/>
</g>
<defs>
<clipPath id="clip0_593_514">
<rect width="18" height="18" fill="white"/>
</clipPath>
</defs>
</svg>
