<svg width="32" height="32" viewBox="0 0 32 32" fill="none" xmlns="http://www.w3.org/2000/svg">
<path fill-rule="evenodd" clip-rule="evenodd" d="M16 32C24.8366 32 32 24.8366 32 16C32 7.16344 24.8366 0 16 0C7.16344 0 0 7.16344 0 16C0 24.8366 7.16344 32 16 32ZM11.8724 7H20.1275C22.8142 7 25 9.18573 25 11.8724V20.1277C25 22.8142 22.8142 25 20.1277 25H11.8724C9.18573 25 7 22.8142 7 20.1277V11.8724C7 9.18573 9.18573 7 11.8724 7ZM20.1275 23.9447C22.2324 23.9447 23.9447 22.2324 23.9447 20.1277V11.8724C23.9447 9.76759 22.2324 8.05523 20.1277 8.05523H11.8724C9.76759 8.05523 8.05523 9.76759 8.05523 11.8724V20.1277C8.05523 22.2324 9.76759 23.9447 11.8724 23.9447H20.1275ZM16 11.0782C13.2861 11.0782 11.0782 13.2861 11.0782 16C11.0782 18.7139 13.2861 20.9217 16 20.9217C18.7139 20.9217 20.9217 18.7139 20.9217 16C20.9217 13.2861 18.7139 11.0782 16 11.0782ZM16 19.8665C13.8681 19.8665 12.1335 18.132 12.1335 16C12.1335 13.8681 13.8681 12.1335 16 12.1335C18.132 12.1335 19.8665 13.8681 19.8665 16C19.8665 18.132 18.132 19.8665 16 19.8665ZM19.585 10.7847C19.585 9.98279 20.2374 9.33034 21.0394 9.33034C21.8414 9.33034 22.4938 9.98266 22.4938 10.7847C22.4938 11.5867 21.8414 12.2391 21.0394 12.2391C20.2374 12.2391 19.585 11.5867 19.585 10.7847ZM20.6403 10.7847C20.6403 11.0047 20.8194 11.1837 21.0394 11.1837C21.2595 11.1837 21.4386 11.0047 21.4386 10.7847C21.4386 10.5645 21.2595 10.3856 21.0394 10.3856C20.8194 10.3856 20.6403 10.5645 20.6403 10.7847Z" fill="#E6E6E6"/>
</svg>
