<svg width="37" height="37" viewBox="0 0 37 37" fill="none" xmlns="http://www.w3.org/2000/svg">
<path d="M24.6667 7.70834C23.2495 7.70834 21.8462 7.98747 20.5369 8.5298C19.2276 9.07213 18.0379 9.86704 17.0358 10.8691C16.0337 11.8712 15.2388 13.0609 14.6965 14.3702C14.1541 15.6795 13.875 17.0828 13.875 18.5C13.875 19.9172 14.1541 21.3205 14.6965 22.6298C15.2388 23.9391 16.0337 25.1288 17.0358 26.1309C18.0379 27.133 19.2276 27.9279 20.5369 28.4702C21.8462 29.0125 23.2495 29.2917 24.6667 29.2917C26.0838 29.2917 27.4872 29.0125 28.7965 28.4702C30.1058 27.9279 31.2954 27.133 32.2975 26.1309C33.2996 25.1288 34.0945 23.9391 34.6369 22.6298C35.1792 21.3205 35.4583 19.9172 35.4583 18.5C35.4583 17.0828 35.1792 15.6795 34.6369 14.3702C34.0945 13.0609 33.2996 11.8712 32.2975 10.8691C31.2954 9.86704 30.1058 9.07213 28.7965 8.5298C27.4872 7.98747 26.0838 7.70834 24.6667 7.70834Z" fill="#FF9800"/>
<path d="M12.3337 7.70834C10.9165 7.70834 9.51317 7.98747 8.20387 8.5298C6.89456 9.07213 5.7049 9.86704 4.7028 10.8691C3.7007 11.8712 2.90579 13.0609 2.36346 14.3702C1.82113 15.6795 1.54199 17.0828 1.54199 18.5C1.54199 19.9172 1.82113 21.3205 2.36346 22.6298C2.90579 23.9391 3.7007 25.1288 4.7028 26.1309C5.7049 27.133 6.89456 27.9279 8.20387 28.4702C9.51317 29.0125 10.9165 29.2917 12.3337 29.2917C13.7508 29.2917 15.1541 29.0125 16.4635 28.4702C17.7728 27.9279 18.9624 27.133 19.9645 26.1309C20.9666 25.1288 21.7615 23.9391 22.3039 22.6298C22.8462 21.3205 23.1253 19.9172 23.1253 18.5C23.1253 17.0828 22.8462 15.6795 22.3039 14.3702C21.7615 13.0609 20.9666 11.8712 19.9645 10.8691C18.9624 9.86704 17.7728 9.07213 16.4635 8.5298C15.1541 7.98747 13.7508 7.70834 12.3337 7.70834Z" fill="#D50000"/>
<path d="M13.875 18.5C13.875 22.1653 15.7065 25.3989 18.5 27.3491C21.2935 25.3989 23.125 22.1653 23.125 18.5C23.125 14.8347 21.2935 11.601 18.5 9.65081C15.7065 11.601 13.875 14.8347 13.875 18.5Z" fill="#FF3D00"/>
</svg>
