<svg width="20" height="20" viewBox="0 0 20 20" fill="none" xmlns="http://www.w3.org/2000/svg">
<g clip-path="url(#clip0_593_536)">
<path d="M19.9681 10.6193C19.915 10.5101 19.8042 10.4407 19.6827 10.4407H9.11587L11.1534 8.35711C11.1706 8.33949 11.1851 8.32031 11.1974 8.30016C11.2092 8.28953 11.2206 8.27828 11.2309 8.26559C11.6997 7.69434 11.9579 6.97199 11.9579 6.23164C11.9579 4.46266 10.5188 3.02344 8.74993 3.02344C7.9172 3.02344 7.13345 3.33938 6.53372 3.9132C6.532 3.91484 6.53017 3.91625 6.52849 3.91793L6.5229 3.92348C6.50915 3.93676 6.49493 3.94945 6.48138 3.96305C6.47493 3.96949 6.46903 3.97629 6.46321 3.98309L1.28935 9.15223C1.28919 9.15238 1.28896 9.15258 1.2888 9.15273C-0.4296 10.8711 -0.4296 13.6673 1.2888 15.3859C2.30524 16.4025 3.69696 16.9764 5.13138 16.9764C5.18892 16.9764 5.24653 16.9755 5.30419 16.9736H12.3002C12.4754 16.9736 12.6174 16.8316 12.6174 16.6564C12.6174 16.4811 12.4754 16.3391 12.3002 16.3391H5.29899C5.29548 16.3391 5.29196 16.3391 5.28845 16.3393C3.94739 16.385 2.68603 15.8859 1.73751 14.9373C0.266494 13.4661 0.266494 11.0725 1.73751 9.60148C2.29552 9.04336 3.03759 8.73606 3.82692 8.73606C4.12864 8.73606 4.42333 8.78133 4.7036 8.86801L3.07681 10.3751C3.03466 10.4097 2.99399 10.4466 2.95489 10.4857C2.57849 10.862 2.37118 11.3623 2.37114 11.8946C2.37114 12.4269 2.57845 12.9273 2.95481 13.3036C3.41024 13.7591 4.01579 14.0099 4.65985 14.0099H4.65993C5.30399 14.0099 5.90954 13.7591 6.36501 13.3037C6.48103 13.1878 6.58462 13.0641 6.67708 12.9349L8.4954 11.0754H19.03L14.8942 16.3391L12.3002 16.3391C12.1249 16.3391 11.9829 16.4811 11.9829 16.6564C11.9829 16.8316 12.1249 16.9736 12.3002 16.9736L15.0484 16.9737C15.1458 16.9737 15.2377 16.9289 15.2978 16.8524L19.9322 10.9541C20.0072 10.8585 20.0212 10.7286 19.9681 10.6193ZM5.33446 9.14844C5.5113 9.25367 5.67771 9.3784 5.83173 9.52098L5.05505 10.2842C4.85583 10.1489 4.63044 10.0597 4.39204 10.0215L5.33446 9.14844ZM6.18911 12.5261L6.1886 12.5266C6.16505 12.5507 6.14622 12.5776 6.13188 12.6061C6.06645 12.6932 5.99462 12.7764 5.91622 12.8548C5.58063 13.1905 5.13446 13.3753 4.65985 13.3753C4.18524 13.3753 3.73907 13.1904 3.40349 12.8548C3.14696 12.5983 3.00567 12.2573 3.00567 11.8945C3.00567 11.5318 3.14696 11.1908 3.40353 10.9344C3.59673 10.7412 3.85356 10.6347 4.12677 10.6347H4.12681C4.40005 10.6348 4.65689 10.7412 4.85005 10.9344C4.85392 10.9382 4.85802 10.9416 4.86196 10.9452C4.86571 10.9486 4.86938 10.9522 4.87325 10.9554C4.87767 10.9589 4.88228 10.9621 4.88681 10.9655C4.89087 10.9685 4.89485 10.9717 4.89903 10.9745C4.90364 10.9775 4.90849 10.9802 4.91325 10.983C4.91755 10.9855 4.92181 10.9883 4.92618 10.9906C4.93114 10.9932 4.93626 10.9954 4.94134 10.9977C4.94571 10.9998 4.95001 11.002 4.95446 11.0038C4.95974 11.006 4.96521 11.0077 4.9706 11.0095C4.97497 11.0111 4.97927 11.0128 4.98368 11.0141C4.98919 11.0157 4.99477 11.0169 5.00032 11.0182C5.00478 11.0193 5.00911 11.0206 5.0136 11.0214C5.01919 11.0225 5.02481 11.0231 5.03044 11.0239C5.03497 11.0245 5.03946 11.0254 5.04395 11.0259C5.04978 11.0264 5.05567 11.0264 5.06157 11.0267C5.06587 11.0269 5.0702 11.0273 5.0745 11.0273C5.08462 11.0273 5.09474 11.0268 5.10478 11.0259C5.10591 11.0258 5.107 11.0255 5.10817 11.0254C5.11704 11.0245 5.12595 11.0233 5.13478 11.0216C5.13778 11.021 5.14071 11.0201 5.14372 11.0194C5.15063 11.0179 5.15755 11.0164 5.16438 11.0144C5.1681 11.0133 5.17169 11.0118 5.1754 11.0106C5.18138 11.0086 5.18743 11.0067 5.19325 11.0044C5.19731 11.0027 5.20122 11.0007 5.2052 10.9989C5.2106 10.9964 5.21599 10.9942 5.22126 10.9914C5.22536 10.9893 5.22931 10.9867 5.23333 10.9844C5.23829 10.9815 5.24333 10.9788 5.24813 10.9756C5.2522 10.973 5.25599 10.9699 5.25997 10.967C5.26458 10.9637 5.26927 10.9605 5.27372 10.9569C5.27743 10.9539 5.28091 10.9505 5.28454 10.9473C5.28864 10.9436 5.29286 10.9402 5.29681 10.9364L6.24056 10.0089C6.46786 10.3711 6.59005 10.7902 6.59001 11.2283C6.59005 11.6984 6.44954 12.1467 6.18911 12.5261ZM7.21204 11.4801C7.27661 10.7242 7.04978 9.94828 6.53204 9.3357C6.5238 9.32473 6.51505 9.3141 6.50517 9.30406C6.50474 9.30363 6.50427 9.30332 6.50392 9.30289C6.45946 9.25184 6.41368 9.20148 6.36513 9.15293C5.68724 8.47496 4.78583 8.10152 3.827 8.10152C3.82692 8.10152 3.82692 8.10152 3.82685 8.10152C3.60751 8.10152 3.39146 8.12199 3.18013 8.16023L6.97153 4.3723C7.45278 3.91164 8.08169 3.65801 8.74997 3.65801C10.169 3.65801 11.3234 4.81254 11.3234 6.23164C11.3234 6.82559 11.1164 7.40492 10.7405 7.86301C10.731 7.87457 10.7228 7.88676 10.7152 7.89914C10.71 7.90383 10.7047 7.90836 10.6998 7.91344L7.21204 11.4801Z" fill="#821BF0"/>
</g>
<defs>
<clipPath id="clip0_593_536">
<rect width="20" height="20" fill="white"/>
</clipPath>
</defs>
</svg>
