<svg width="20" height="20" viewBox="0 0 20 20" fill="none" xmlns="http://www.w3.org/2000/svg">
<path d="M14.4595 19.4594H5.54055C5.25383 19.4594 4.97886 19.3455 4.77611 19.1428C4.57337 18.9401 4.45947 18.6651 4.45947 18.3784V1.62161C4.45947 1.33489 4.57337 1.05991 4.77611 0.857169C4.97886 0.654427 5.25383 0.540527 5.54055 0.540527H14.4595C14.7462 0.540527 15.0212 0.654427 15.2239 0.857169C15.4267 1.05991 15.5406 1.33489 15.5406 1.62161V18.3784C15.5406 18.6651 15.4267 18.9401 15.2239 19.1428C15.0212 19.3455 14.7462 19.4594 14.4595 19.4594ZM5.54055 1.08107C5.39719 1.08107 5.25971 1.13802 5.15833 1.23939C5.05696 1.34076 5.00001 1.47825 5.00001 1.62161V18.3784C5.00001 18.5217 5.05696 18.6592 5.15833 18.7606C5.25971 18.862 5.39719 18.9189 5.54055 18.9189H14.4595C14.6028 18.9189 14.7403 18.862 14.8417 18.7606C14.9431 18.6592 15 18.5217 15 18.3784V1.62161C15 1.47825 14.9431 1.34076 14.8417 1.23939C14.7403 1.13802 14.6028 1.08107 14.4595 1.08107H5.54055Z" fill="#821BF0"/>
<path d="M15.2703 3.51344H4.72974C4.65806 3.51344 4.58932 3.48497 4.53863 3.43428C4.48795 3.3836 4.45947 3.31485 4.45947 3.24317C4.45947 3.17149 4.48795 3.10275 4.53863 3.05206C4.58932 3.00138 4.65806 2.9729 4.72974 2.9729H15.2703C15.342 2.9729 15.4107 3.00138 15.4614 3.05206C15.5121 3.10275 15.5406 3.17149 15.5406 3.24317C15.5406 3.31485 15.5121 3.3836 15.4614 3.43428C15.4107 3.48497 15.342 3.51344 15.2703 3.51344Z" fill="#821BF0"/>
<path d="M15.2703 15.9459H4.72974C4.65806 15.9459 4.58932 15.9175 4.53863 15.8668C4.48795 15.8161 4.45947 15.7474 4.45947 15.6757C4.45947 15.604 4.48795 15.5352 4.53863 15.4846C4.58932 15.4339 4.65806 15.4054 4.72974 15.4054H15.2703C15.342 15.4054 15.4107 15.4339 15.4614 15.4846C15.5121 15.5352 15.5406 15.604 15.5406 15.6757C15.5406 15.7474 15.5121 15.8161 15.4614 15.8668C15.4107 15.9175 15.342 15.9459 15.2703 15.9459Z" fill="#821BF0"/>
<path d="M9.99999 18.4293C9.80285 18.4293 9.61014 18.3708 9.44622 18.2613C9.28231 18.1518 9.15455 17.9961 9.07911 17.814C9.00367 17.6319 8.98393 17.4314 9.02239 17.2381C9.06085 17.0447 9.15578 16.8671 9.29518 16.7277C9.43458 16.5883 9.61218 16.4934 9.80553 16.4549C9.99889 16.4165 10.1993 16.4362 10.3814 16.5117C10.5636 16.5871 10.7192 16.7149 10.8288 16.8788C10.9383 17.0427 10.9967 17.2354 10.9967 17.4325C10.9965 17.6968 10.8914 17.9502 10.7045 18.137C10.5176 18.3239 10.2643 18.429 9.99999 18.4293ZM9.99999 16.9766C9.90975 16.9766 9.82153 17.0034 9.7465 17.0535C9.67147 17.1036 9.613 17.1749 9.57848 17.2583C9.54396 17.3417 9.53494 17.4334 9.55256 17.5219C9.57019 17.6104 9.61366 17.6917 9.67749 17.7555C9.74132 17.8193 9.82264 17.8627 9.91116 17.8803C9.99967 17.8979 10.0914 17.8888 10.1748 17.8542C10.2581 17.8197 10.3294 17.7611 10.3795 17.6861C10.4296 17.611 10.4563 17.5228 10.4562 17.4325C10.4561 17.3116 10.4079 17.1957 10.3224 17.1102C10.2369 17.0247 10.1209 16.9767 9.99999 16.9766Z" fill="#821BF0"/>
<path d="M11.0811 2.36488H8.91895C8.84727 2.36488 8.77853 2.33641 8.72784 2.28572C8.67716 2.23504 8.64868 2.16629 8.64868 2.09461C8.64868 2.02293 8.67716 1.95419 8.72784 1.9035C8.77853 1.85282 8.84727 1.82434 8.91895 1.82434H11.0811C11.1528 1.82434 11.2215 1.85282 11.2722 1.9035C11.3229 1.95419 11.3514 2.02293 11.3514 2.09461C11.3514 2.16629 11.3229 2.23504 11.2722 2.28572C11.2215 2.33641 11.1528 2.36488 11.0811 2.36488Z" fill="#821BF0"/>
</svg>
