<svg width="18" height="18" viewBox="0 0 18 18" fill="none" xmlns="http://www.w3.org/2000/svg">
<g clip-path="url(#clip0_593_477)">
<path d="M17.51 0.540776C17.1518 0.192454 16.5928 0.171502 16.2067 0.494898L8.85079 6.78976C7.07603 8.31305 2.7289 13.393 2.54458 13.6088C2.44298 13.7275 2.44987 13.9047 2.56047 14.0153L3.75941 15.2142C3.81756 15.2724 3.89459 15.302 3.97161 15.302C4.03605 15.302 4.10081 15.2814 4.15537 15.2388C4.39668 15.0512 10.0908 10.6141 12.2324 8.10497L17.5355 1.89226C17.8937 1.50833 17.8841 0.916028 17.51 0.540776ZM17.088 1.49335L11.7763 7.71594C9.90138 9.91274 5.05908 13.7653 3.99562 14.6025L3.18093 13.7878C4.03669 12.7941 7.70219 8.56568 9.24106 7.24506L16.5943 0.952625C16.7408 0.829439 16.9549 0.837525 17.0886 0.96732C17.2303 1.10966 17.2339 1.33659 17.088 1.49335Z" fill="#821BF0"/>
<path d="M4.18484 14.6328L3.15671 13.5927C3.071 13.5067 2.94209 13.48 2.83029 13.5259L2.58751 13.6248C1.05553 14.2494 0.0690974 15.7227 0.0747926 17.3763V17.7C0.0747926 17.7798 0.106573 17.8559 0.162928 17.9122C0.219282 17.9686 0.295113 17.9998 0.37453 17.9998C0.375127 17.9998 0.375444 17.9998 0.375725 18.0001C2.18406 17.9929 3.77088 16.7673 4.23367 15.0213L4.26063 14.9223C4.28883 14.8192 4.25975 14.709 4.18484 14.6328ZM0.674267 17.3859V17.3751C0.669485 15.9663 1.50935 14.7119 2.8138 14.1799L2.87107 14.1565L3.63662 14.9313C3.24843 16.2856 2.06239 17.2574 0.674267 17.3859Z" fill="#821BF0"/>
<path d="M7.18079 8.79499L6.7569 9.21887L8.55524 11.0172L8.97913 10.5933L7.18079 8.79499Z" fill="#821BF0"/>
<path d="M6.28107 9.69477L5.85718 10.1187L7.65552 11.917L8.07941 11.4931L6.28107 9.69477Z" fill="#821BF0"/>
<path d="M17.8964 9.90876C17.4438 7.82498 16.4468 5.88896 15.0135 4.30963L14.5699 4.7128C15.9328 6.21419 16.8806 8.0549 17.3095 10.0305C17.3508 10.2391 17.3167 10.4567 17.213 10.6425C16.972 11.0757 16.4237 11.2321 15.9882 10.9896L15.3716 10.6515C14.8108 10.341 14.1038 10.4408 13.6544 10.8898C13.1964 11.3316 13.0831 12.0333 13.3769 12.5938L14.6031 14.9921C14.6343 15.0529 14.6616 15.1162 14.684 15.1812C14.9565 15.9611 14.5438 16.8178 13.7695 17.0884C11.0653 17.9697 7.51844 16.9466 4.73359 14.4783L4.33612 14.9267C6.5659 16.9032 9.27492 17.9972 11.7229 17.9972C12.5037 17.9972 13.2582 17.8857 13.9614 17.6564C15.0533 17.2746 15.6312 16.0756 15.25 14.9833C15.2179 14.8925 15.1804 14.8041 15.1367 14.719L13.9092 12.3184C13.7369 11.9892 13.8031 11.5792 14.0744 11.3175C14.3391 11.0528 14.7527 10.9941 15.0821 11.1767L15.6981 11.5145C16.4208 11.9164 17.3347 11.6559 17.7366 10.9339C17.909 10.6243 17.9659 10.2619 17.8964 9.90876Z" fill="#821BF0"/>
<path d="M1.83807 1.77877C-0.8449 4.46473 -0.413575 9.45869 2.84131 13.3952L3.30322 13.0127C0.246472 9.316 -0.201059 4.66856 2.26191 2.20257C4.78992 -0.321817 9.66667 0.250974 13.3649 3.50733L13.7611 3.05741C9.76082 -0.465111 4.63523 -1.01484 1.83807 1.77877Z" fill="#821BF0"/>
<path d="M9.66641 1.81372C8.84004 1.81372 8.16772 2.48604 8.16772 3.31241C8.16772 4.13877 8.84004 4.81109 9.66641 4.81109C10.4928 4.81109 11.1651 4.13877 11.1651 3.31241C11.1651 2.48604 10.4928 1.81372 9.66641 1.81372ZM9.66641 4.21165C9.17064 4.21165 8.7672 3.80821 8.7672 3.31244C8.7672 2.81668 9.17064 2.41323 9.66641 2.41323C10.1625 2.41323 10.5656 2.81668 10.5656 3.31244C10.5656 3.80821 10.1622 4.21165 9.66641 4.21165Z" fill="#821BF0"/>
<path d="M5.76987 1.21423C4.9435 1.21423 4.27118 1.88655 4.27118 2.71292C4.27118 3.53929 4.9435 4.2116 5.76987 4.2116C6.59624 4.2116 7.26855 3.53929 7.26855 2.71292C7.26855 1.88655 6.59624 1.21423 5.76987 1.21423ZM5.76987 3.61216C5.2741 3.61216 4.87065 3.20872 4.87065 2.71295C4.87065 2.21719 5.2741 1.81374 5.76987 1.81374C6.26595 1.81374 6.66908 2.21719 6.66908 2.71295C6.66908 3.20872 6.26563 3.61216 5.76987 3.61216Z" fill="#821BF0"/>
<path d="M3.07217 3.91199C2.2458 3.91199 1.57349 4.5843 1.57349 5.41067C1.57349 6.23704 2.2458 6.90935 3.07217 6.90935C3.89854 6.90935 4.57086 6.23704 4.57086 5.41067C4.57086 4.5843 3.89854 3.91199 3.07217 3.91199ZM3.07217 6.30988C2.57641 6.30988 2.17296 5.90643 2.17296 5.41067C2.17296 4.91491 2.57641 4.51146 3.07217 4.51146C3.56825 4.51146 3.97138 4.91491 3.97138 5.41067C3.97138 5.90643 3.56794 6.30988 3.07217 6.30988Z" fill="#821BF0"/>
<path d="M3.67166 7.50891C2.84529 7.50891 2.17297 8.18122 2.17297 9.00759C2.17297 9.83396 2.84529 10.5063 3.67166 10.5063C4.49802 10.5063 5.17034 9.83396 5.17034 9.00759C5.17034 8.18122 4.49806 7.50891 3.67166 7.50891ZM3.67166 9.9068C3.17589 9.9068 2.77245 9.50335 2.77245 9.00759C2.77245 8.51183 3.17589 8.10838 3.67166 8.10838C4.16774 8.10838 4.57086 8.51183 4.57086 9.00759C4.57086 9.50335 4.16742 9.9068 3.67166 9.9068Z" fill="#821BF0"/>
<path d="M8.76717 12.9041C7.94081 12.9041 7.26849 13.5764 7.26849 14.4027C7.26849 15.2291 7.94081 15.9014 8.76717 15.9014C9.59354 15.9014 10.2659 15.2291 10.2659 14.4027C10.2659 13.5764 9.59354 12.9041 8.76717 12.9041ZM8.76717 15.302C8.27141 15.302 7.86796 14.8985 7.86796 14.4028C7.86796 13.907 8.27141 13.5036 8.76717 13.5036C9.26325 13.5036 9.66638 13.907 9.66638 14.4028C9.66638 14.8985 9.26293 15.302 8.76717 15.302Z" fill="#821BF0"/>
<path d="M14.3123 7.20911C13.5687 7.20911 12.9635 7.81427 12.9635 8.55792C12.9635 9.30156 13.5687 9.90673 14.3123 9.90673C15.0563 9.90673 15.6611 9.30156 15.6611 8.55792C15.6611 7.81427 15.056 7.20911 14.3123 7.20911ZM14.3123 9.30726C13.899 9.30726 13.563 8.97096 13.563 8.55792C13.563 8.14488 13.899 7.80858 14.3123 7.80858C14.7257 7.80858 15.0617 8.14488 15.0617 8.55792C15.0617 8.97096 14.7257 9.30726 14.3123 9.30726Z" fill="#821BF0"/>
</g>
<defs>
<clipPath id="clip0_593_477">
<rect width="18" height="18" fill="white"/>
</clipPath>
</defs>
</svg>
