<svg width="18" height="18" viewBox="0 0 18 18" fill="none" xmlns="http://www.w3.org/2000/svg">
<g clip-path="url(#clip0_593_540)">
<path d="M17.6484 15.082H16.0904C16.8564 14.657 17.4951 14.0821 17.9409 13.4138C18.0128 13.3059 18.0195 13.1672 17.9584 13.0529C17.8972 12.9385 17.7781 12.8672 17.6484 12.8672H17.0052C17.6656 11.5716 18 10.2732 18 8.99998C18 4.14664 13.8565 0 8.99998 0C4.15149 0 0 4.13795 0 8.99998C0 10.2732 0.334406 11.5716 0.994744 12.8672H0.351562C0.221906 12.8672 0.102762 12.9385 0.0415898 13.0529C-0.0195468 13.1672 -0.0128672 13.3059 0.0590624 13.4138C0.513702 14.0956 1.16286 14.6694 1.90441 15.082H0.351562C0.221906 15.082 0.102762 15.1534 0.0415898 15.2677C-0.0195468 15.382 -0.0128672 15.5207 0.0590624 15.6286C1.0048 17.047 2.79105 18 4.50386 18H13.4961C15.1932 18 17.0018 17.0365 17.9409 15.6286C18.0129 15.5208 18.0196 15.3821 17.9584 15.2677C17.8972 15.1534 17.7781 15.082 17.6484 15.082ZM0.703124 8.99998C0.703124 4.50263 4.50263 0.703124 8.99998 0.703124C13.4973 0.703124 17.2968 4.50263 17.2968 8.99998C17.2968 10.2641 16.9308 11.5642 16.2089 12.8672H14.4505C15.3154 11.6899 15.7851 10.3404 15.7851 8.99998C15.7851 5.32205 12.6779 2.21484 8.99998 2.21484C5.32205 2.21484 2.21484 5.32205 2.21484 8.99998C2.21484 10.3404 2.6846 11.6899 3.54951 12.8672H1.7911C1.0692 11.5642 0.703124 10.2641 0.703124 8.99998ZM13.5533 12.8672H4.44666C3.45976 11.717 2.91796 10.3494 2.91796 8.99998C2.91796 5.70318 5.70321 2.91796 8.99998 2.91796C12.2968 2.91796 15.082 5.70318 15.082 8.99998C15.082 10.3494 14.5402 11.717 13.5533 12.8672ZM1.0832 13.5668C1.80889 13.5668 16.0313 13.5668 16.9184 13.5668C16.0763 14.4559 14.7677 15.082 13.4961 15.082H4.50386C3.27135 15.082 1.95198 14.479 1.0832 13.5668ZM13.4961 17.2968H4.50386C3.27135 17.2968 1.95198 16.6938 1.0832 15.7816C1.61036 15.7816 16.5295 15.7816 16.9184 15.7816C16.0763 16.6708 14.7677 17.2968 13.4961 17.2968Z" fill="#821BF0"/>
</g>
<defs>
<clipPath id="clip0_593_540">
<rect width="18" height="18" fill="white"/>
</clipPath>
</defs>
</svg>
