<svg width="30" height="30" viewBox="0 0 30 30" fill="none" xmlns="http://www.w3.org/2000/svg">
<path d="M29.0577 12.7187L17.1213 0.782318C16.6024 0.263214 16.0721 0 15.5454 0C14.8146 0 13.9611 0.547714 13.9611 2.09084V9.45053C10.3178 9.69864 6.92802 11.2468 4.338 13.8638C1.5406 16.6903 0 20.4371 0 24.4139C0 26.1269 0.287476 27.8091 0.854874 29.4141C0.978928 29.7652 1.31104 30 1.68343 30C2.05605 30 2.38792 29.7652 2.51221 29.4141C4.2572 24.4771 8.78975 21.0358 13.9611 20.6273V27.9089C13.9611 29.4521 14.8144 29.9998 15.5454 29.9998C16.0721 29.9998 16.6022 29.7368 17.121 29.2179L29.0579 17.281C29.6654 16.6734 30 15.8633 30 14.9998C29.9998 14.1364 29.6651 13.3262 29.0577 12.7187ZM27.8149 16.0382L15.8782 27.9751C15.8219 28.0312 15.7718 28.076 15.7283 28.1115C15.7224 28.0556 15.7187 27.9886 15.7187 27.9092V19.7083C15.7187 19.4737 15.6248 19.2485 15.4578 19.0835C15.2932 18.9207 15.0712 18.8294 14.8398 18.8294C14.8366 18.8294 14.8334 18.8297 14.8302 18.8297C11.7 18.8644 8.71078 19.8539 6.18576 21.6907C4.41696 22.9774 2.9702 24.6066 1.91826 26.4807C1.8116 25.8002 1.75781 25.1102 1.75781 24.4139C1.75781 17.1936 7.63069 11.2541 14.8496 11.1738C15.3312 11.1685 15.7189 10.7767 15.7189 10.2949V2.09084C15.7189 2.01141 15.7226 1.94458 15.7283 1.8885C15.7718 1.92398 15.8219 1.96884 15.8782 2.02515L27.8149 13.9618C28.0904 14.2374 28.2422 14.6059 28.2422 15C28.242 15.3939 28.0902 15.7626 27.8149 16.0382Z" fill="black"/>
</svg>
