<svg width="25" height="25" viewBox="0 0 25 25" fill="none" xmlns="http://www.w3.org/2000/svg">
<path d="M24.4572 11.3792C24.9493 10.8996 25.123 10.1957 24.9108 9.54145C24.698 8.88717 24.1439 8.42011 23.4631 8.32099L17.4098 7.44143C17.152 7.40389 16.9292 7.24219 16.8141 7.00841L14.1078 1.52333C13.804 0.907091 13.1872 0.524132 12.4999 0.524132C11.8131 0.524132 11.1963 0.907091 10.8925 1.52333L8.18572 7.00841C8.07058 7.24219 7.84731 7.40389 7.5895 7.44143L1.53624 8.32149C0.855923 8.42011 0.301758 8.88717 0.089003 9.54145C-0.123252 10.1957 0.0504568 10.8996 0.542547 11.3792L4.9223 15.6483C5.10903 15.8305 5.19463 16.0928 5.15058 16.3491L4.11684 22.3779C4.0007 23.0552 4.27352 23.7265 4.82969 24.131C5.38536 24.5359 6.10873 24.5885 6.71796 24.2676L12.1315 21.4212C12.3622 21.3001 12.6376 21.3001 12.8683 21.4212L18.2823 24.2676C18.5467 24.4068 18.833 24.4754 19.1178 24.4754C19.4878 24.4754 19.8562 24.3597 20.1706 24.131C20.7268 23.7265 20.9996 23.0552 20.8835 22.3779L19.8492 16.3496C19.8052 16.0928 19.8908 15.831 20.0775 15.6488L24.4572 11.3792ZM18.863 16.5188L19.8968 22.5471C19.9488 22.8504 19.8312 23.1403 19.5819 23.3215C19.3321 23.5022 19.0212 23.5242 18.7484 23.3821L13.3344 20.5351C13.0736 20.3985 12.7862 20.3294 12.4999 20.3294C12.2136 20.3294 11.9267 20.3985 11.6654 20.5356L6.2524 23.3821C5.97857 23.5242 5.6677 23.5022 5.4184 23.3215C5.1691 23.1403 5.05196 22.8509 5.10352 22.5471L6.13726 16.5188C6.23688 15.9371 6.04415 15.3434 5.62164 14.9319L1.24139 10.6623C1.02062 10.447 0.945531 10.1437 1.04115 9.85082C1.13626 9.55747 1.37505 9.35623 1.67991 9.31168L7.73268 8.43212C8.31688 8.34752 8.82198 7.98108 9.0828 7.45145L11.7895 1.96636C11.9257 1.69003 12.1915 1.52533 12.4994 1.52533C12.8078 1.52533 13.0731 1.69003 13.2097 1.96636L15.9165 7.45145C16.1773 7.98108 16.6819 8.34752 17.2661 8.43212L23.3194 9.31168C23.6242 9.35623 23.863 9.55747 23.9581 9.85082C24.0533 10.1437 23.9787 10.447 23.7579 10.6623L19.3782 14.9314C18.9556 15.3434 18.7629 15.9366 18.863 16.5188Z" fill="white"/>
</svg>
