<svg width="23" height="22" viewBox="0 0 23 22" fill="none" xmlns="http://www.w3.org/2000/svg">
<path d="M10.6661 0.92705C10.9655 0.00573921 12.2689 0.0057404 12.5682 0.927051L14.5409 6.99831C14.6748 7.41033 15.0587 7.68929 15.492 7.68929H21.8756C22.8444 7.68929 23.2471 8.92891 22.4634 9.49831L17.2989 13.2505C16.9484 13.5052 16.8018 13.9566 16.9356 14.3686L18.9083 20.4398C19.2077 21.3611 18.1532 22.1273 17.3695 21.5579L12.205 17.8056C11.8545 17.551 11.3799 17.551 11.0294 17.8056L5.86486 21.5579C5.08115 22.1273 4.02667 21.3611 4.32602 20.4398L6.29869 14.3686C6.43257 13.9566 6.28591 13.5052 5.93542 13.2505L0.770904 9.49831C-0.0128101 8.9289 0.389966 7.68929 1.35869 7.68929H7.74239C8.17561 7.68929 8.55957 7.41033 8.69344 6.99831L10.6661 0.92705Z" fill="#FFA927" fill-opacity="0.4"/>
</svg>
