<svg width="24" height="22" viewBox="0 0 24 22" fill="none" xmlns="http://www.w3.org/2000/svg">
<path d="M11.0714 0.92705C11.3708 0.00573945 12.6742 0.00574064 12.9735 0.927051L14.9462 6.99831C15.0801 7.41033 15.464 7.68929 15.8973 7.68929H22.281C23.2497 7.68929 23.6525 8.92891 22.8687 9.49831L17.7042 13.2506C17.3537 13.5052 17.2071 13.9566 17.3409 14.3686L19.3136 20.4398C19.613 21.3612 18.5585 22.1273 17.7748 21.5579L12.6103 17.8056C12.2598 17.551 11.7852 17.551 11.4347 17.8056L6.27017 21.5579C5.48645 22.1273 4.43197 21.3611 4.73133 20.4398L6.704 14.3686C6.83787 13.9566 6.69121 13.5052 6.34073 13.2506L1.17621 9.49831C0.392493 8.92891 0.795269 7.68929 1.76399 7.68929H8.14769C8.58092 7.68929 8.96487 7.41033 9.09875 6.99831L11.0714 0.92705Z" fill="#FFA927"/>
</svg>
