<svg width="20" height="20" viewBox="0 0 20 20" fill="none" xmlns="http://www.w3.org/2000/svg">
<path d="M4.37203 8.87319C4.05688 8.87319 3.8006 9.1296 3.8006 9.44462V16.8383C3.22903 17.4516 2.91583 18.2465 2.91583 19.0894V19.1427C2.91583 19.3006 3.04376 19.4284 3.20155 19.4284H15.0174C15.1752 19.4284 15.3031 19.3006 15.3031 19.1427V19.0894C15.3031 18.2317 14.9788 17.4237 14.3875 16.8057V9.44462C14.3875 9.16818 14.1901 8.93708 13.9288 8.88457L16.6121 4.72335C16.6215 4.70872 16.6243 4.69125 16.6308 4.67529C16.6384 4.65677 16.6489 4.63913 16.6524 4.61991C16.6526 4.6189 16.6534 4.61808 16.6536 4.61705L17.0799 2.14634C17.0994 2.03306 17.0492 1.91895 16.9522 1.857C16.8554 1.79534 16.7308 1.79757 16.636 1.86258L14.6148 3.25879C14.6029 3.26706 14.5957 3.28006 14.5853 3.2899C14.5699 3.30434 14.5526 3.31611 14.5403 3.3344C14.5391 3.33608 14.5391 3.33807 14.538 3.33976C14.537 3.34138 14.5351 3.34225 14.5341 3.34389L11.1178 8.87319H10.9673V3.05594H11.4137V5.48284C11.4137 5.64076 11.5417 5.76855 11.6995 5.76855C11.8572 5.76855 11.9852 5.64076 11.9852 5.48284V2.77023C11.9852 2.6123 11.8572 2.48451 11.6995 2.48451H10.9673V1.32073C10.9673 0.907506 10.6311 0.571289 10.2179 0.571289H9.41444C9.00121 0.571289 8.66513 0.907506 8.66513 1.32073V8.87319H8.22209L6.57543 1.57129C6.55869 1.49735 6.51335 1.4329 6.44931 1.39244C6.38514 1.35226 6.30813 1.33887 6.23363 1.35533L3.42783 1.98982C3.27395 2.02469 3.17741 2.17759 3.21215 2.33161L4.55072 8.25501C4.55077 8.25525 4.55069 8.25548 4.55074 8.25572C4.55081 8.256 4.55098 8.25621 4.55105 8.25649L4.69042 8.87319H4.37203ZM5.0428 9.4446C5.04453 9.44463 5.04608 9.44545 5.04781 9.44545C5.05037 9.44545 5.05304 9.44467 5.05562 9.4446L8.93911 9.44448C8.94323 9.44465 8.94668 9.44685 8.95085 9.44685C8.95502 9.44685 8.95847 9.44465 8.96258 9.44448L10.6696 9.44442C10.6738 9.44462 10.6773 9.44685 10.6816 9.44685C10.6859 9.44685 10.6894 9.44462 10.6936 9.44442L11.2752 9.44441C11.2757 9.44441 11.2762 9.44462 11.2767 9.44462C11.2773 9.44462 11.2778 9.44441 11.2784 9.44441L13.8161 9.44434V16.6678H4.37203V9.44462L5.0428 9.4446ZM14.7221 18.857H3.49689C3.5476 18.2517 3.79763 17.6882 4.21157 17.2393H14.0074C14.4213 17.6882 14.6713 18.2517 14.7221 18.857ZM16.1655 4.08498L15.2841 3.49114L16.4012 2.71945L16.1655 4.08498ZM14.8641 3.89699L15.9802 4.64891L13.2562 8.87319H11.7893L14.8641 3.89699ZM9.41444 1.14272H10.2179C10.3161 1.14272 10.3959 1.22252 10.3959 1.32073V2.48451H9.23656V1.32073C9.23656 1.22252 9.31636 1.14272 9.41444 1.14272ZM9.23656 3.05594H10.3959V8.87319H9.23656V3.05594ZM5.17124 8.40845L5.53623 8.32603C5.69011 8.29116 5.78679 8.13825 5.75205 7.98424C5.71731 7.8305 5.56525 7.73368 5.41039 7.76856L5.04526 7.85099L4.8183 6.84658L5.18355 6.76409C5.33743 6.72921 5.43411 6.57631 5.39937 6.42229C5.36449 6.26856 5.21159 6.17229 5.05771 6.20661L4.69234 6.28913L4.46538 5.28479L4.83087 5.20243C4.98489 5.16783 5.08157 5.01493 5.04683 4.86091C5.01195 4.70689 4.85919 4.61063 4.70531 4.64495L4.33943 4.7274L4.11249 3.72311L4.47833 3.64049C4.63221 3.60561 4.72889 3.45271 4.69415 3.29869C4.65928 3.14495 4.50554 3.04841 4.3525 3.08301L3.98653 3.16565L3.83255 2.48424L6.08087 1.97587L7.63631 8.87319H5.27625L5.17124 8.40845Z" fill="#821BF0"/>
</svg>
