<svg width="43" height="43" viewBox="0 0 43 43" fill="none" xmlns="http://www.w3.org/2000/svg">
<g clip-path="url(#clip0_4943_684)">
<path d="M15.7666 27.6771L17.9507 15.3913H21.3634L19.2476 27.6771H15.7666Z" fill="#3C58BF"/>
<path d="M15.7666 27.6771L18.565 15.3913H21.3634L19.2476 27.6771H15.7666Z" fill="#293688"/>
<path d="M31.602 15.5277C30.9195 15.2546 29.8274 14.9816 28.4624 14.9816C25.0497 14.9816 22.5925 16.688 22.5925 19.1451C22.5925 20.988 24.2989 21.9435 25.6639 22.5578C27.029 23.1721 27.4385 23.5816 27.4385 24.1277C27.4385 24.9467 26.3465 25.3562 25.3909 25.3562C24.0258 25.3562 23.2751 25.1515 22.1147 24.6737L21.637 24.4689L21.1592 27.2673C21.9782 27.6086 23.4798 27.9499 25.0497 27.9499C28.6671 27.9499 31.056 26.2435 31.056 23.6499C31.056 22.2166 30.1687 21.1245 28.1211 20.2372C26.8925 19.6229 26.1417 19.2816 26.1417 18.6673C26.1417 18.1213 26.756 17.5753 28.1211 17.5753C29.2814 17.5753 30.1005 17.78 30.7147 18.0531L31.056 18.1896L31.602 15.5277Z" fill="#3C58BF"/>
<path d="M31.602 15.5277C30.9195 15.2546 29.8274 14.9816 28.4624 14.9816C25.0497 14.9816 23.2068 16.688 23.2068 19.1451C23.2068 20.988 24.2989 21.9435 25.6639 22.5578C27.029 23.1721 27.4385 23.5816 27.4385 24.1277C27.4385 24.9467 26.3465 25.3562 25.3909 25.3562C24.0258 25.3562 23.2751 25.1515 22.1147 24.6737L21.637 24.4689L21.1592 27.2673C21.9782 27.6086 23.4798 27.9499 25.0497 27.9499C28.6671 27.9499 31.056 26.2435 31.056 23.6499C31.056 22.2166 30.1687 21.1245 28.1211 20.2372C26.8925 19.6229 26.1417 19.2816 26.1417 18.6673C26.1417 18.1213 26.756 17.5753 28.1211 17.5753C29.2814 17.5753 30.1005 17.78 30.7147 18.0531L31.056 18.1896L31.602 15.5277Z" fill="#293688"/>
<path d="M37.4718 15.3913C36.6527 15.3913 36.0384 15.4596 35.6972 16.2787L30.5781 27.6771H34.2638L34.9464 25.6294H39.3146L39.7241 27.6771H43.0003L40.1337 15.3913H37.4718ZM35.9019 23.5818C36.1067 22.9675 37.267 19.9644 37.267 19.9644C37.267 19.9644 37.54 19.2136 37.7448 18.7358L37.9495 19.8961C37.9495 19.8961 38.6321 22.9675 38.7686 23.6501H35.9019V23.5818Z" fill="#3C58BF"/>
<path d="M38.2908 15.3913C37.4718 15.3913 36.8575 15.4596 36.5162 16.2787L30.5781 27.6771H34.2638L34.9464 25.6294H39.3146L39.7241 27.6771H43.0003L40.1337 15.3913H38.2908ZM35.9019 23.5818C36.1749 22.8993 37.267 19.9644 37.267 19.9644C37.267 19.9644 37.54 19.2136 37.7448 18.7358L37.9495 19.8961C37.9495 19.8961 38.6321 22.9675 38.7686 23.6501H35.9019V23.5818Z" fill="#293688"/>
<path d="M9.48721 23.9913L9.14594 22.2167C8.53166 20.1691 6.55229 17.9167 4.36816 16.8247L7.43959 27.7453H11.1253L16.6539 15.4596H12.9682L9.48721 23.9913Z" fill="#3C58BF"/>
<path d="M9.48721 23.9913L9.14594 22.2167C8.53166 20.1691 6.55229 17.9167 4.36816 16.8247L7.43959 27.7453H11.1253L16.6539 15.4596H13.6507L9.48721 23.9913Z" fill="#293688"/>
<path d="M0 15.3913L0.614286 15.5279C4.98254 16.5517 7.98571 19.1453 9.14603 22.2167L7.91746 16.4152C7.7127 15.5961 7.09841 15.3913 6.34762 15.3913H0Z" fill="#FFBC00"/>
<path d="M0 15.3913C4.36825 16.4152 7.98571 19.0771 9.14603 22.1485L7.98571 17.3025C7.78095 16.4834 7.09841 16.0056 6.34762 16.0056L0 15.3913Z" fill="#F7981D"/>
<path d="M0 15.3913C4.36825 16.4152 7.98571 19.0771 9.14603 22.1485L8.32698 19.4866C8.12222 18.6675 7.84921 17.8485 6.89365 17.5072L0 15.3913Z" fill="#ED7C00"/>
<path d="M12.9 23.5819L10.5794 21.2612L9.48732 23.8549L9.2143 22.1485C8.60002 20.1009 6.62065 17.8485 4.43652 16.7565L7.50795 27.6771H11.1937L12.9 23.5819Z" fill="#051244"/>
<path d="M19.2476 27.6771L16.3126 24.6739L15.7666 27.6771H19.2476Z" fill="#051244"/>
<path d="M27.0973 23.4454C27.3703 23.7185 27.5068 23.9232 27.4385 24.1962C27.4385 25.0153 26.3465 25.4248 25.3909 25.4248C24.0258 25.4248 23.2751 25.2201 22.1147 24.7423L21.637 24.5375L21.1592 27.3359C21.9782 27.6772 23.4798 28.0185 25.0497 28.0185C27.2338 28.0185 29.0084 27.4042 30.0322 26.3121L27.0973 23.4454Z" fill="#051244"/>
<path d="M31.0557 27.6771H34.2636L34.9461 25.6295H39.3144L39.7239 27.6771H43.0001L41.8398 22.6946L37.7446 18.7358L37.9493 19.8279C37.9493 19.8279 38.6319 22.8993 38.7684 23.5819H35.9017C36.1747 22.8993 37.2668 19.9644 37.2668 19.9644C37.2668 19.9644 37.5398 19.2136 37.7446 18.7358" fill="#051244"/>
</g>
<defs>
<clipPath id="clip0_4943_684">
<rect width="43" height="43" fill="white"/>
</clipPath>
</defs>
</svg>
